<?xml version="1.0" encoding="utf-8"?>
<!-- Generator: Adobe Illustrator 26.0.1, SVG Export Plug-In . SVG Version: 6.00 Build 0)  -->
<svg version="1.1" id="Layer_1" xmlns="http://www.w3.org/2000/svg" xmlns:xlink="http://www.w3.org/1999/xlink" x="0px" y="0px"
	 viewBox="0 0 22 18" style="enable-background:new 0 0 22 18;" xml:space="preserve">
<style type="text/css">
	.st0{fill-rule:evenodd;clip-rule:evenodd;fill:#127384;}
</style>
<path class="st0" d="M11,4C5.4,4,0.8,6.2,0.8,9c0,2.8,4.6,5,10.2,5c5.6,0,10.2-2.3,10.2-5C21.2,6.2,16.6,4,11,4L11,4z M10,5.1
	c1.2-0.4,4.6,0,6,0.6c0.4,0.4-1.9,1.7-4.7,2.3C7.3,8.8,9.2,5.8,10,5.1L10,5.1z M3.2,11.1c-0.9-0.6-2.6-2.4,0.3-4.3
	c1.5-0.9,2.4-1.1,3.4-1.3c0.5-0.1,0.9,0,0.4,0.4c-1,1-2.9,4.3-3.1,5C4,11.3,3.7,11.4,3.2,11.1L3.2,11.1z M11.4,13.1
	c-1.7,0.2-5.4-0.4-5.5-0.9c0.1-1.2,6-3.1,7-2C13.3,11.1,12.5,13.1,11.4,13.1L11.4,13.1z M20,9.7c-0.4,1-1.9,2.1-4.9,2.9
	c-0.5,0.1-0.6-0.2-0.3-0.4c0.5-0.3,2.9-4.4,3.2-5.2c0.2-0.4,0.5-0.3,0.7-0.1C19.6,7.5,20.4,8.5,20,9.7L20,9.7z"/>
</svg>
