<?xml version="1.0" encoding="utf-8"?>
<!-- Generator: Adobe Illustrator 26.0.1, SVG Export Plug-In . SVG Version: 6.00 Build 0)  -->
<svg version="1.1" id="Layer_1" xmlns="http://www.w3.org/2000/svg" xmlns:xlink="http://www.w3.org/1999/xlink" x="0px" y="0px"
	 viewBox="0 0 50 50" style="enable-background:new 0 0 50 50;" xml:space="preserve">
<style type="text/css">
	.st0{fill:url(#SVGID_1_);}
	.st1{fill:url(#SVGID_00000099662906407090192440000002886624881205391009_);}
	.st2{fill:url(#SVGID_00000066488792317605954590000012676234038387701665_);}
</style>
<g>
	<g>
		
			<linearGradient id="SVGID_1_" gradientUnits="userSpaceOnUse" x1="25" y1="14.9385" x2="25" y2="33.7065" gradientTransform="matrix(1 0 0 -1 0 46)">
			<stop  offset="0" style="stop-color:#FEC045"/>
			<stop  offset="0.7467" style="stop-color:#E99C33"/>
			<stop  offset="1" style="stop-color:#D77C28"/>
		</linearGradient>
		<path class="st0" d="M3.1,31.1c-2,0-2.1,0-1.8-2c0.5-4.8,2.6-8.9,6.1-12c3.8-3.3,8.3-5,13.4-4.7c4.9,0.3,9.1,2.2,12.5,5.8
			c0.5,0.5,0.9,0.7,1.6,0.6C41.8,18,47.7,22.7,48.7,29c0.3,2.2,0.4,2.1-1.7,2.1c-0.3,0-0.7,0-1,0c-0.7,0.1-0.9-0.3-1-0.9
			c-0.7-5.5-5.9-8.9-11.1-7.2c-1,0.4-1.5,0.1-2.1-0.7c-3.6-4.9-9.6-7-15.4-5.6c-5.7,1.4-10.1,6.2-11,12.1c0,0.1,0,0.3,0,0.4
			C5,31.1,5,31.1,3.1,31.1z"/>
		<g>
			
				<linearGradient id="SVGID_00000118391251806764558600000002131200692893950634_" gradientUnits="userSpaceOnUse" x1="46.1307" y1="11.6972" x2="46.4321" y2="11.6972" gradientTransform="matrix(1 0 0 -1 0 46)">
				<stop  offset="4.960318e-04" style="stop-color:#302F2F"/>
				<stop  offset="1" style="stop-color:#302F2F"/>
			</linearGradient>
			<path style="fill:url(#SVGID_00000118391251806764558600000002131200692893950634_);" d="M36.6,37.7c-3.1,0-6-2.2-6.6-5.2
				c-0.3-1.3-0.2-1.5,1.2-1.5c0.1,0,0.3,0,0.4,0c1.1-0.1,1.8,0,2.1,1.4c0.3,1.2,1.7,1.9,2.9,1.9c1.3,0,2.6-0.9,2.9-2.3
				c0.2-0.9,0.6-1.1,1.4-1c0.1,0,0.2,0,0.3,0c2.3,0,2.3,0,1.5,2.3C41.9,35.9,39.4,37.7,36.6,37.7z"/>
			
				<linearGradient id="SVGID_00000155828260577436009510000010753991861655366561_" gradientUnits="userSpaceOnUse" x1="46.1307" y1="11.8243" x2="46.4321" y2="11.8243" gradientTransform="matrix(1 0 0 -1 0 46)">
				<stop  offset="4.960318e-04" style="stop-color:#302F2F"/>
				<stop  offset="1" style="stop-color:#302F2F"/>
			</linearGradient>
			<path style="fill:url(#SVGID_00000155828260577436009510000010753991861655366561_);" d="M9.4,30.9c0.9-0.2,1.5,0.1,1.8,1.3
				c0.3,1.2,1.7,2,3,2c1.3-0.1,2.5-1,2.9-2.3c0.2-0.8,0.6-1.1,1.3-1c0.1,0,0.2,0,0.3,0c2.3,0,2.4,0.2,1.6,2.4c-1,2.8-4,4.6-6.9,4.3
				C10.4,37.3,8,35,7.5,32c-0.1-0.9,0-1.3,1-1.2C8.7,30.9,8.9,30.9,9.4,30.9z"/>
		</g>
	</g>
</g>
</svg>
