<?xml version="1.0" encoding="utf-8"?>
<!-- Generator: Adobe Illustrator 26.0.1, SVG Export Plug-In . SVG Version: 6.00 Build 0)  -->
<svg version="1.1" id="Layer_1" xmlns="http://www.w3.org/2000/svg" xmlns:xlink="http://www.w3.org/1999/xlink" x="0px" y="0px"
	 viewBox="0 0 208 44" style="enable-background:new 0 0 208 44;" xml:space="preserve">
<style type="text/css">
	.st0{fill:none;}
	.st1{fill:url(#SVGID_1_);}
	.st2{fill:url(#SVGID_00000031917424562062361310000013397688117042951575_);}
	.st3{fill:url(#SVGID_00000000180748831174758200000014089970211808436647_);}
	.st4{enable-background:new    ;}
	.st5{fill:#FAA733;}
	.st6{fill:#2F2F2F;}
</style>
<g>
	<rect x="0.5" y="4.6" class="st0" width="206.6" height="34.7"/>
	<g>
		<g>
			
				<linearGradient id="SVGID_1_" gradientUnits="userSpaceOnUse" x1="28.1177" y1="25.9385" x2="28.1177" y2="44.7065" gradientTransform="matrix(1 0 0 -1 0 54)">
				<stop  offset="0" style="stop-color:#FEC046"/>
				<stop  offset="0.5156" style="stop-color:#E89B34"/>
				<stop  offset="1" style="stop-color:#D77B27"/>
			</linearGradient>
			<path class="st1" d="M6.2,28.1c-2,0-2.1,0-1.8-2c0.5-4.8,2.6-8.9,6.1-12c3.8-3.3,8.3-5,13.4-4.7c4.9,0.3,9.1,2.2,12.5,5.8
				c0.5,0.5,0.9,0.7,1.6,0.6C44.9,15,50.8,19.7,51.8,26c0.3,2.2,0.4,2.1-1.7,2.1c-0.3,0-0.7,0-1,0c-0.7,0.1-0.9-0.3-1-0.9
				c-0.7-5.5-5.9-8.9-11.1-7.2c-1,0.4-1.5,0.1-2.1-0.7c-3.6-4.9-9.6-7-15.4-5.6c-5.7,1.4-10.1,6.2-11,12.1c0,0.1,0,0.3,0,0.4
				C8.1,28.1,8.1,28.1,6.2,28.1z"/>
			<g>
				
					<linearGradient id="SVGID_00000004528040147319527000000011214919837437112759_" gradientUnits="userSpaceOnUse" x1="49.2484" y1="22.6972" x2="49.5498" y2="22.6972" gradientTransform="matrix(1 0 0 -1 0 54)">
					<stop  offset="4.960318e-04" style="stop-color:#2F2F2F"/>
					<stop  offset="1" style="stop-color:#2F2F2F"/>
				</linearGradient>
				<path style="fill:url(#SVGID_00000004528040147319527000000011214919837437112759_);" d="M39.7,34.7c-3.1,0-6-2.2-6.6-5.2
					c-0.3-1.3-0.2-1.5,1.2-1.5c0.1,0,0.3,0,0.4,0c1.1-0.1,1.8,0,2.1,1.4c0.3,1.2,1.7,1.9,2.9,1.9c1.3,0,2.6-0.9,2.9-2.3
					c0.2-0.9,0.6-1.1,1.4-1c0.1,0,0.2,0,0.3,0c2.3,0,2.3,0,1.5,2.3C45,32.9,42.5,34.7,39.7,34.7z"/>
				
					<linearGradient id="SVGID_00000075883327843677327550000014771517358323594901_" gradientUnits="userSpaceOnUse" x1="49.2484" y1="22.8243" x2="49.5498" y2="22.8243" gradientTransform="matrix(1 0 0 -1 0 54)">
					<stop  offset="4.960318e-04" style="stop-color:#2F2F2F"/>
					<stop  offset="1" style="stop-color:#2F2F2F"/>
				</linearGradient>
				<path style="fill:url(#SVGID_00000075883327843677327550000014771517358323594901_);" d="M12.5,27.9c0.9-0.2,1.5,0.1,1.8,1.3
					c0.3,1.2,1.7,2,3,2c1.3-0.1,2.5-1,2.9-2.3c0.2-0.8,0.6-1.1,1.3-1c0.1,0,0.2,0,0.3,0c2.3,0,2.4,0.2,1.6,2.4c-1,2.8-4,4.6-6.9,4.3
					c-3-0.3-5.4-2.6-5.9-5.6c-0.1-0.9,0-1.3,1-1.2C11.8,27.9,12,27.9,12.5,27.9z"/>
			</g>
		</g>
		<g>
			<g class="st4">
				<path class="st5" d="M74.7,23.6c0.4,0.5,0.6,1.2,0.6,2c0,1.1-0.4,2-1.3,2.5c-0.9,0.6-2.1,0.9-3.8,0.9h-6.5V16.4h6.2
					c1.5,0,2.7,0.3,3.5,0.9c0.8,0.6,1.2,1.4,1.2,2.4c0,0.6-0.1,1.2-0.4,1.6c-0.3,0.5-0.7,0.9-1.2,1.1C73.7,22.7,74.3,23.1,74.7,23.6
					z M66.6,18.6v3h2.9c0.7,0,1.3-0.1,1.6-0.4c0.4-0.3,0.6-0.6,0.6-1.1s-0.2-0.9-0.6-1.1c-0.4-0.2-0.9-0.4-1.6-0.4H66.6z M71.8,26.4
					c0.4-0.3,0.6-0.6,0.6-1.2c0-1-0.8-1.6-2.3-1.6h-3.4v3.1H70C70.8,26.8,71.4,26.7,71.8,26.4z"/>
				<path class="st5" d="M87.1,19.3V29h-2.7v-1.2c-0.4,0.4-0.8,0.7-1.3,1c-0.5,0.2-1.1,0.3-1.7,0.3c-1.3,0-2.3-0.4-3-1.1
					c-0.7-0.7-1.1-1.8-1.1-3.3v-5.5h2.8v5.1c0,1.6,0.7,2.3,2,2.3c0.7,0,1.2-0.2,1.6-0.7c0.4-0.4,0.6-1.1,0.6-2v-4.8H87.1z"/>
				<path class="st5" d="M90.6,28.9c-0.8-0.2-1.4-0.4-1.8-0.7l0.9-2c0.4,0.3,1,0.5,1.6,0.7c0.6,0.2,1.2,0.3,1.8,0.3
					c1.2,0,1.8-0.3,1.8-0.9c0-0.3-0.2-0.5-0.5-0.6s-0.8-0.2-1.5-0.3c-0.8-0.1-1.4-0.3-2-0.4c-0.5-0.2-1-0.4-1.3-0.8
					c-0.4-0.4-0.6-1-0.6-1.7c0-0.6,0.2-1.2,0.5-1.6c0.4-0.5,0.9-0.8,1.5-1.1c0.7-0.3,1.5-0.4,2.4-0.4c0.7,0,1.4,0.1,2,0.2
					c0.7,0.1,1.2,0.4,1.7,0.6l-0.9,2c-0.9-0.5-1.8-0.7-2.8-0.7c-0.6,0-1.1,0.1-1.4,0.3c-0.3,0.2-0.5,0.4-0.5,0.6
					c0,0.3,0.2,0.5,0.5,0.6c0.3,0.1,0.8,0.2,1.5,0.3c0.8,0.1,1.4,0.3,1.9,0.4c0.5,0.2,0.9,0.4,1.3,0.8c0.4,0.4,0.6,0.9,0.6,1.7
					c0,0.6-0.2,1.1-0.5,1.6s-0.9,0.8-1.6,1.1c-0.7,0.3-1.5,0.4-2.5,0.4C92.1,29.2,91.3,29.1,90.6,28.9z"/>
				<path class="st5" d="M100.1,28.9c-0.8-0.2-1.4-0.4-1.8-0.7l0.9-2c0.4,0.3,1,0.5,1.6,0.7c0.6,0.2,1.2,0.3,1.8,0.3
					c1.2,0,1.8-0.3,1.8-0.9c0-0.3-0.2-0.5-0.5-0.6s-0.8-0.2-1.5-0.3c-0.8-0.1-1.4-0.3-2-0.4c-0.5-0.2-1-0.4-1.3-0.8
					c-0.4-0.4-0.6-1-0.6-1.7c0-0.6,0.2-1.2,0.5-1.6c0.4-0.5,0.9-0.8,1.5-1.1c0.7-0.3,1.5-0.4,2.4-0.4c0.7,0,1.4,0.1,2,0.2
					c0.7,0.1,1.2,0.4,1.7,0.6l-0.9,2c-0.9-0.5-1.8-0.7-2.8-0.7c-0.6,0-1.1,0.1-1.4,0.3c-0.3,0.2-0.5,0.4-0.5,0.6
					c0,0.3,0.2,0.5,0.5,0.6c0.3,0.1,0.8,0.2,1.5,0.3c0.8,0.1,1.4,0.3,1.9,0.4c0.5,0.2,0.9,0.4,1.3,0.8c0.4,0.4,0.6,0.9,0.6,1.7
					c0,0.6-0.2,1.1-0.5,1.6c-0.4,0.5-0.9,0.8-1.6,1.1c-0.7,0.3-1.5,0.4-2.5,0.4C101.7,29.2,100.9,29.1,100.1,28.9z"/>
				<path class="st5" d="M108.9,17.5c-0.3-0.3-0.5-0.7-0.5-1.1c0-0.4,0.2-0.8,0.5-1.1c0.3-0.3,0.7-0.5,1.3-0.5
					c0.5,0,0.9,0.1,1.3,0.4s0.5,0.6,0.5,1.1c0,0.5-0.2,0.9-0.5,1.2c-0.3,0.3-0.7,0.5-1.3,0.5C109.7,18,109.2,17.8,108.9,17.5z
					 M108.8,19.3h2.8V29h-2.8V19.3z"/>
				<path class="st5" d="M123,20.3c0.7,0.7,1.1,1.8,1.1,3.2V29h-2.8v-5.1c0-0.8-0.2-1.3-0.5-1.7s-0.8-0.6-1.5-0.6
					c-0.7,0-1.3,0.2-1.7,0.7c-0.4,0.4-0.6,1.1-0.6,2V29h-2.8v-9.7h2.7v1.1c0.4-0.4,0.8-0.7,1.4-0.9c0.6-0.2,1.2-0.3,1.8-0.3
					C121.3,19.2,122.3,19.5,123,20.3z"/>
			</g>
			<g class="st4">
				<path class="st6" d="M151.5,16.4L147.3,29h-3.1l-2.8-8.5l-2.9,8.5h-3.1l-4.1-12.6h3l2.8,8.9l3-8.9h2.7l2.9,8.9l2.9-8.9H151.5z"
					/>
				<path class="st6" d="M162,20.3c0.7,0.7,1.1,1.8,1.1,3.2V29h-2.8v-5.1c0-0.8-0.2-1.3-0.5-1.7s-0.8-0.6-1.5-0.6
					c-0.7,0-1.3,0.2-1.7,0.7c-0.4,0.4-0.6,1.1-0.6,2V29h-2.8V15.7h2.8v4.7c0.4-0.4,0.8-0.7,1.4-0.9c0.5-0.2,1.1-0.3,1.7-0.3
					C160.2,19.2,161.2,19.5,162,20.3z"/>
				<path class="st6" d="M175.1,25h-7.3c0.1,0.6,0.4,1.1,0.9,1.4s1.1,0.5,1.8,0.5c0.5,0,1-0.1,1.3-0.2c0.4-0.1,0.8-0.4,1.1-0.7
					l1.5,1.6c-0.9,1-2.2,1.6-4,1.6c-1.1,0-2.1-0.2-2.9-0.6c-0.8-0.4-1.5-1-1.9-1.8c-0.5-0.8-0.7-1.6-0.7-2.6c0-0.9,0.2-1.8,0.7-2.6
					c0.5-0.8,1.1-1.4,1.9-1.8c0.8-0.4,1.7-0.6,2.6-0.6c0.9,0,1.8,0.2,2.6,0.6c0.8,0.4,1.4,1,1.8,1.8s0.7,1.6,0.7,2.7
					C175.2,24.2,175.2,24.5,175.1,25z M168.6,21.8c-0.4,0.4-0.7,0.9-0.8,1.5h4.8c-0.1-0.6-0.4-1.1-0.8-1.5c-0.4-0.4-1-0.5-1.6-0.5
					C169.5,21.3,169,21.5,168.6,21.8z"/>
				<path class="st6" d="M186.5,25h-7.3c0.1,0.6,0.4,1.1,0.9,1.4s1.1,0.5,1.8,0.5c0.5,0,1-0.1,1.3-0.2c0.4-0.1,0.8-0.4,1.1-0.7
					l1.5,1.6c-0.9,1-2.2,1.6-4,1.6c-1.1,0-2.1-0.2-2.9-0.6c-0.8-0.4-1.5-1-1.9-1.8c-0.5-0.8-0.7-1.6-0.7-2.6c0-0.9,0.2-1.8,0.7-2.6
					c0.5-0.8,1.1-1.4,1.9-1.8c0.8-0.4,1.7-0.6,2.6-0.6c0.9,0,1.8,0.2,2.6,0.6c0.8,0.4,1.4,1,1.8,1.8s0.7,1.6,0.7,2.7
					C186.5,24.2,186.5,24.5,186.5,25z M179.9,21.8c-0.4,0.4-0.7,0.9-0.8,1.5h4.8c-0.1-0.6-0.4-1.1-0.8-1.5c-0.4-0.4-1-0.5-1.6-0.5
					C180.9,21.3,180.4,21.5,179.9,21.8z"/>
				<path class="st6" d="M188.4,15.7h2.8V29h-2.8V15.7z"/>
				<path class="st6" d="M194.7,28.9c-0.8-0.2-1.4-0.4-1.8-0.7l0.9-2c0.4,0.3,1,0.5,1.6,0.7c0.6,0.2,1.2,0.3,1.8,0.3
					c1.2,0,1.8-0.3,1.8-0.9c0-0.3-0.2-0.5-0.5-0.6s-0.8-0.2-1.5-0.3c-0.8-0.1-1.4-0.3-2-0.4s-1-0.4-1.3-0.8c-0.4-0.4-0.6-1-0.6-1.7
					c0-0.6,0.2-1.2,0.5-1.6c0.4-0.5,0.9-0.8,1.5-1.1c0.7-0.3,1.5-0.4,2.4-0.4c0.7,0,1.4,0.1,2,0.2c0.7,0.1,1.2,0.4,1.7,0.6l-0.9,2
					c-0.9-0.5-1.8-0.7-2.8-0.7c-0.6,0-1.1,0.1-1.3,0.3c-0.3,0.2-0.5,0.4-0.5,0.6c0,0.3,0.2,0.5,0.5,0.6s0.8,0.2,1.5,0.3
					c0.8,0.1,1.4,0.3,1.9,0.4c0.5,0.2,0.9,0.4,1.3,0.8c0.4,0.4,0.6,0.9,0.6,1.7c0,0.6-0.2,1.1-0.5,1.6s-0.9,0.8-1.6,1.1
					c-0.7,0.3-1.5,0.4-2.5,0.4C196.3,29.2,195.5,29.1,194.7,28.9z"/>
			</g>
		</g>
	</g>
</g>
</svg>
