<?xml version="1.0" encoding="utf-8"?>
<!-- Generator: Adobe Illustrator 26.0.1, SVG Export Plug-In . SVG Version: 6.00 Build 0)  -->
<svg version="1.1" id="Layer_1" xmlns="http://www.w3.org/2000/svg" xmlns:xlink="http://www.w3.org/1999/xlink" x="0px" y="0px"
	 viewBox="0 0 206.6 34.7" style="enable-background:new 0 0 206.6 34.7;" xml:space="preserve">
<style type="text/css">
	.st0{fill:none;}
	.st1{fill:#FFA633;}
	.st2{fill:url(#SVGID_1_);}
	.st3{fill:url(#SVGID_00000129904162097862277220000017349918361914393260_);}
	.st4{enable-background:new    ;}
	.st5{fill:#302F2F;}
</style>
<g>
	<rect class="st0" width="206.6" height="34.7"/>
	<g>
		<g>
			<path class="st1" d="M5.7,23.4c-2,0-2.1,0-1.8-2c0.5-4.8,2.6-8.9,6.1-12c3.8-3.3,8.3-5,13.4-4.7c4.9,0.3,9.1,2.2,12.5,5.8
				c0.5,0.5,0.9,0.7,1.6,0.6c6.9-0.8,12.8,3.9,13.8,10.2c0.3,2.2,0.4,2.1-1.7,2.1c-0.3,0-0.7,0-1,0c-0.7,0.1-0.9-0.3-1-0.9
				c-0.7-5.5-5.9-8.9-11.1-7.2c-1,0.4-1.5,0.1-2.1-0.7C30.8,9.7,24.8,7.6,19,9c-5.7,1.4-10.1,6.2-11,12.1c0,0.1,0,0.3,0,0.4
				C7.6,23.4,7.6,23.4,5.7,23.4z"/>
			<g>
				
					<linearGradient id="SVGID_1_" gradientUnits="userSpaceOnUse" x1="48.7484" y1="2.3514" x2="49.0498" y2="2.3514" gradientTransform="matrix(1 0 0 -1 0 28.9873)">
					<stop  offset="4.960318e-04" style="stop-color:#302F2F"/>
					<stop  offset="1" style="stop-color:#302F2F"/>
				</linearGradient>
				<path class="st2" d="M39.2,30c-3.1,0-6-2.2-6.6-5.2c-0.3-1.3-0.2-1.5,1.2-1.5c0.1,0,0.3,0,0.4,0c1.1-0.1,1.8,0,2.1,1.4
					c0.3,1.2,1.7,1.9,2.9,1.9c1.3,0,2.6-0.9,2.9-2.3c0.2-0.9,0.6-1.1,1.4-1c0.1,0,0.2,0,0.3,0c2.3,0,2.3,0,1.5,2.3
					C44.5,28.2,42,30,39.2,30z"/>
				
					<linearGradient id="SVGID_00000029008411871835644200000013617548661257237915_" gradientUnits="userSpaceOnUse" x1="48.7484" y1="2.4785" x2="49.0498" y2="2.4785" gradientTransform="matrix(1 0 0 -1 0 28.9873)">
					<stop  offset="4.960318e-04" style="stop-color:#302F2F"/>
					<stop  offset="1" style="stop-color:#302F2F"/>
				</linearGradient>
				<path style="fill:url(#SVGID_00000029008411871835644200000013617548661257237915_);" d="M12,23.2c0.9-0.2,1.5,0.1,1.8,1.3
					c0.3,1.2,1.7,2,3,2c1.3-0.1,2.5-1,2.9-2.3c0.2-0.8,0.6-1.1,1.3-1c0.1,0,0.2,0,0.3,0c2.3,0,2.4,0.2,1.6,2.4c-1,2.8-4,4.6-6.9,4.3
					c-3-0.3-5.4-2.6-5.9-5.6c-0.1-0.9,0-1.3,1-1.2C11.3,23.2,11.5,23.2,12,23.2z"/>
			</g>
		</g>
		<g>
			<g class="st4">
				<path class="st1" d="M74.2,19c0.4,0.5,0.6,1.2,0.6,2c0,1.1-0.4,2-1.3,2.5c-0.9,0.6-2.1,0.9-3.8,0.9h-6.5V11.8h6.2
					c1.5,0,2.7,0.3,3.5,0.9c0.8,0.6,1.2,1.4,1.2,2.4c0,0.6-0.1,1.2-0.4,1.6c-0.3,0.5-0.7,0.9-1.2,1.1C73.2,18,73.8,18.4,74.2,19z
					 M66.1,14v3H69c0.7,0,1.3-0.1,1.6-0.4c0.4-0.3,0.6-0.6,0.6-1.1s-0.2-0.9-0.6-1.1C70.3,14.1,69.7,14,69,14H66.1z M71.3,21.8
					c0.4-0.3,0.6-0.6,0.6-1.2c0-1-0.8-1.6-2.3-1.6h-3.4v3.1h3.4C70.3,22.2,70.9,22,71.3,21.8z"/>
				<path class="st1" d="M86.6,14.7v9.7h-2.7v-1.2c-0.4,0.4-0.8,0.7-1.3,1c-0.5,0.2-1.1,0.3-1.7,0.3c-1.3,0-2.3-0.4-3-1.1
					s-1.1-1.8-1.1-3.3v-5.5h2.8v5.1c0,1.6,0.7,2.3,2,2.3c0.7,0,1.2-0.2,1.6-0.7c0.4-0.4,0.6-1.1,0.6-2v-4.8h2.8
					C86.6,14.5,86.6,14.7,86.6,14.7z"/>
				<path class="st1" d="M90.1,24.2c-0.8-0.2-1.4-0.4-1.8-0.7l0.9-2c0.4,0.3,1,0.5,1.6,0.7s1.2,0.3,1.8,0.3c1.2,0,1.8-0.3,1.8-0.9
					c0-0.3-0.2-0.5-0.5-0.6s-0.8-0.2-1.5-0.3c-0.8-0.1-1.4-0.3-2-0.4c-0.5-0.2-1-0.4-1.3-0.8c-0.4-0.4-0.6-1-0.6-1.7
					c0-0.6,0.2-1.2,0.5-1.6c0.4-0.5,0.9-0.8,1.5-1.1c0.7-0.3,1.5-0.4,2.4-0.4c0.7,0,1.4,0.1,2,0.2c0.7,0.1,1.2,0.4,1.7,0.6l-0.9,2
					c-0.9-0.5-1.8-0.7-2.8-0.7c-0.6,0-1.1,0.1-1.4,0.3c-0.3,0.2-0.5,0.4-0.5,0.6c0,0.3,0.2,0.5,0.5,0.6s0.8,0.2,1.5,0.3
					c0.8,0.1,1.4,0.3,1.9,0.4c0.5,0.2,0.9,0.4,1.3,0.8s0.6,0.9,0.6,1.7c0,0.6-0.2,1.1-0.5,1.6s-0.9,0.8-1.6,1.1
					c-0.7,0.3-1.5,0.4-2.5,0.4C91.6,24.5,90.8,24.4,90.1,24.2z"/>
				<path class="st1" d="M99.6,24.2c-0.8-0.2-1.4-0.4-1.8-0.7l0.9-2c0.4,0.3,1,0.5,1.6,0.7s1.2,0.3,1.8,0.3c1.2,0,1.8-0.3,1.8-0.9
					c0-0.3-0.2-0.5-0.5-0.6s-0.8-0.2-1.5-0.3c-0.8-0.1-1.4-0.3-2-0.4c-0.5-0.2-1-0.4-1.3-0.8c-0.4-0.4-0.6-1-0.6-1.7
					c0-0.6,0.2-1.2,0.5-1.6c0.4-0.5,0.9-0.8,1.5-1.1c0.7-0.3,1.5-0.4,2.4-0.4c0.7,0,1.4,0.1,2,0.2c0.7,0.1,1.2,0.4,1.7,0.6l-0.9,2
					c-0.9-0.5-1.8-0.7-2.8-0.7c-0.6,0-1.1,0.1-1.4,0.3c-0.3,0.2-0.5,0.4-0.5,0.6c0,0.3,0.2,0.5,0.5,0.6s0.8,0.2,1.5,0.3
					c0.8,0.1,1.4,0.3,1.9,0.4c0.5,0.2,0.9,0.4,1.3,0.8s0.6,0.9,0.6,1.7c0,0.6-0.2,1.1-0.5,1.6c-0.4,0.5-0.9,0.8-1.6,1.1
					c-0.7,0.3-1.5,0.4-2.5,0.4C101.2,24.5,100.4,24.4,99.6,24.2z"/>
				<path class="st1" d="M108.4,12.9c-0.3-0.3-0.5-0.7-0.5-1.1c0-0.4,0.2-0.8,0.5-1.1s0.7-0.5,1.3-0.5c0.5,0,0.9,0.1,1.3,0.4
					s0.5,0.6,0.5,1.1s-0.2,0.9-0.5,1.2s-0.7,0.5-1.3,0.5C109.2,13.3,108.8,13.2,108.4,12.9z M108.3,14.7h2.8v9.7h-2.8V14.7z"/>
				<path class="st1" d="M122.5,15.6c0.7,0.7,1.1,1.8,1.1,3.2v5.5h-2.8v-5.1c0-0.8-0.2-1.3-0.5-1.7s-0.8-0.6-1.5-0.6
					s-1.3,0.2-1.7,0.7c-0.4,0.4-0.6,1.1-0.6,2v4.8h-2.8v-9.7h2.7v1.1c0.4-0.4,0.8-0.7,1.4-0.9s1.2-0.3,1.8-0.3
					C120.8,14.5,121.8,14.9,122.5,15.6z"/>
			</g>
			<g class="st4">
				<path class="st5" d="M151,11.8l-4.1,12.6h-3.1l-2.8-8.5l-2.9,8.5H135l-4.1-12.6h3l2.8,8.9l3-8.9h2.7l2.9,8.9l2.9-8.9
					C148.2,11.8,151,11.8,151,11.8z"/>
				<path class="st5" d="M161.5,15.6c0.7,0.7,1.1,1.8,1.1,3.2v5.5h-2.8v-5.1c0-0.8-0.2-1.3-0.5-1.7s-0.8-0.6-1.5-0.6
					s-1.3,0.2-1.7,0.7c-0.4,0.4-0.6,1.1-0.6,2v4.8h-2.8V11h2.8v4.7c0.4-0.4,0.8-0.7,1.4-0.9c0.5-0.2,1.1-0.3,1.7-0.3
					C159.7,14.5,160.7,14.9,161.5,15.6z"/>
				<path class="st5" d="M174.6,20.3h-7.3c0.1,0.6,0.4,1.1,0.9,1.4s1.1,0.5,1.8,0.5c0.5,0,1-0.1,1.3-0.2c0.4-0.1,0.8-0.4,1.1-0.7
					l1.5,1.6c-0.9,1-2.2,1.6-4,1.6c-1.1,0-2.1-0.2-2.9-0.6c-0.8-0.4-1.5-1-1.9-1.8c-0.5-0.8-0.7-1.6-0.7-2.6c0-0.9,0.2-1.8,0.7-2.6
					c0.5-0.8,1.1-1.4,1.9-1.8c0.8-0.4,1.7-0.6,2.6-0.6c0.9,0,1.8,0.2,2.6,0.6c0.8,0.4,1.4,1,1.8,1.8s0.7,1.6,0.7,2.7
					C174.7,19.6,174.7,19.8,174.6,20.3z M168.1,17.2c-0.4,0.4-0.7,0.9-0.8,1.5h4.8c-0.1-0.6-0.4-1.1-0.8-1.5c-0.4-0.4-1-0.5-1.6-0.5
					C169,16.7,168.5,16.8,168.1,17.2z"/>
				<path class="st5" d="M186,20.3h-7.3c0.1,0.6,0.4,1.1,0.9,1.4s1.1,0.5,1.8,0.5c0.5,0,1-0.1,1.3-0.2c0.4-0.1,0.8-0.4,1.1-0.7
					l1.5,1.6c-0.9,1-2.2,1.6-4,1.6c-1.1,0-2.1-0.2-2.9-0.6c-0.8-0.4-1.5-1-1.9-1.8c-0.5-0.8-0.7-1.6-0.7-2.6c0-0.9,0.2-1.8,0.7-2.6
					c0.5-0.8,1.1-1.4,1.9-1.8c0.8-0.4,1.7-0.6,2.6-0.6c0.9,0,1.8,0.2,2.6,0.6c0.8,0.4,1.4,1,1.8,1.8s0.7,1.6,0.7,2.7
					C186,19.6,186,19.8,186,20.3z M179.4,17.2c-0.4,0.4-0.7,0.9-0.8,1.5h4.8c-0.1-0.6-0.4-1.1-0.8-1.5c-0.4-0.4-1-0.5-1.6-0.5
					C180.4,16.7,179.9,16.8,179.4,17.2z"/>
				<path class="st5" d="M187.9,11h2.8v13.4h-2.8V11z"/>
				<path class="st5" d="M194.2,24.2c-0.8-0.2-1.4-0.4-1.8-0.7l0.9-2c0.4,0.3,1,0.5,1.6,0.7s1.2,0.3,1.8,0.3c1.2,0,1.8-0.3,1.8-0.9
					c0-0.3-0.2-0.5-0.5-0.6s-0.8-0.2-1.5-0.3c-0.8-0.1-1.4-0.3-2-0.4s-1-0.4-1.3-0.8c-0.4-0.4-0.6-1-0.6-1.7c0-0.6,0.2-1.2,0.5-1.6
					c0.4-0.5,0.9-0.8,1.5-1.1c0.7-0.3,1.5-0.4,2.4-0.4c0.7,0,1.4,0.1,2,0.2c0.7,0.1,1.2,0.4,1.7,0.6l-0.9,2
					c-0.9-0.5-1.8-0.7-2.8-0.7c-0.6,0-1.1,0.1-1.3,0.3c-0.3,0.2-0.5,0.4-0.5,0.6c0,0.3,0.2,0.5,0.5,0.6s0.8,0.2,1.5,0.3
					c0.8,0.1,1.4,0.3,1.9,0.4c0.5,0.2,0.9,0.4,1.3,0.8c0.4,0.4,0.6,0.9,0.6,1.7c0,0.6-0.2,1.1-0.5,1.6s-0.9,0.8-1.6,1.1
					c-0.7,0.3-1.5,0.4-2.5,0.4C195.8,24.5,195,24.4,194.2,24.2z"/>
			</g>
		</g>
	</g>
</g>
</svg>
